<?xml version="1.0" encoding="UTF-8"?>
<svg width="2117px" height="1580px" viewBox="0 0 2117 1580" version="1.1" xmlns="http://www.w3.org/2000/svg" xmlns:xlink="http://www.w3.org/1999/xlink">
    <title>Artboard</title>
    <g id="Artboard" stroke="none" stroke-width="1" fill="none" fill-rule="evenodd">
        <g id="right" transform="translate(1520.000000, 34.000000)">
            <path d="M240,42 C240,180.740695 240,247.491266 240,361.168734 C240,474.846203 332.229342,567 446,567 C559.770658,567 652,474.846203 652,361.168734" id="Path" stroke="#D03A8A" stroke-width="35" stroke-linecap="round"></path>
            <circle id="Oval" stroke="#20E3C3" stroke-width="81" cx="445.5" cy="340.5" r="98.5"></circle>
            <path d="M16,292 C79.8995125,417.999039 328.476207,467.859239 159.589866,559.675898 C140.823285,569.878528 116.902053,580.599217 87,592 C-212,706 356,507 455,657" id="Path-2" stroke="#7678ED" stroke-width="19" stroke-linecap="round"></path>
            <g id="Group-3" transform="translate(466.000000, 1143.000000)">
                <circle id="Oval" stroke="#7678ED" stroke-width="20" cx="176.5" cy="176.5" r="176.5"></circle>
                <circle id="Oval" stroke="#E5E059" stroke-width="50" cx="176.5" cy="176.5" r="98.5"></circle>
                <circle id="Oval" stroke="#D03A8A" stroke-width="15" cx="176.5" cy="176.5" r="50.5"></circle>
            </g>
            <path d="M257.350369,1092.76942 L489.551343,1070.34608 C489.551343,972.867821 410.529602,893.846079 313.051343,893.846079 C215.573085,893.846079 136.551343,972.867821 136.551343,1070.34608 C136.551343,1119.08521 156.306779,1163.21021 188.246997,1195.15043 C204.504653,1211.40808 223.919189,1224.50886 245.492228,1233.45438 C266.302147,1242.08347 289.120562,1246.84608 313.051343,1246.84608 C336.982125,1246.84608 359.80054,1242.08347 380.610459,1233.45438" id="Path" stroke="#20E3C3" stroke-width="34" stroke-linecap="round" transform="translate(313.051343, 1070.346079) rotate(-118.000000) translate(-313.051343, -1070.346079) "></path>
            <g id="Group" transform="translate(424.281434, 872.870144) rotate(-78.000000) translate(-424.281434, -872.870144) translate(272.781434, 796.870144)" stroke="#D03A8A" stroke-linecap="round" stroke-width="20">
                <path d="M151.732994,75.8740103 C151.732994,34.4526541 117.930493,0.874010348 76.2329942,0.874010348 C34.5354956,0.874010348 0.732994197,34.4526541 0.732994197,75.8740103" id="Oval"></path>
                <path d="M302.773357,151.483592 C302.773357,110.062236 268.970855,76.4835923 227.273357,76.4835923 C185.575858,76.4835923 151.773357,110.062236 151.773357,151.483592" id="Oval" transform="translate(227.273357, 113.983592) scale(-1, 1) rotate(-180.000000) translate(-227.273357, -113.983592) "></path>
            </g>
            <g id="Group-2" transform="translate(506.000000, 0.000000)" stroke="#7678ED" stroke-linecap="round" stroke-width="13">
                <path d="M77,152 C87.2723765,152 97.0672654,149.866166 106,146 M130,130 C137.215446,122.899995 143.029812,114.421326 147,105 M153,76 C153,65.6456956 150.88106,55.7726869 147.041879,46.7687087 C143.06191,37.4345455 137.233221,29.0343179 130,22 M106,6 C97.0672654,2.1338336 87.2723765,0 77,0 C66.7276235,0 56.9327346,2.1338336 48,6 M23,22 C15.7667787,29.0343179 9.93808961,37.4345455 5.95812143,46.7687087 C2.11893995,55.7726869 0,65.6456956 0,76 M6,105 C9.83850965,114.256956 15.4600318,122.587701 22.4361654,129.563835 C29.4122991,136.539968 37.7430442,142.16149 47,146" id="Shape"></path>
            </g>
        </g>
        <g id="left" transform="translate(17.500000, 32.500000)">
            <path d="M224.5,979 C224.5,881.521742 145.478258,802.5 48,802.5" id="Path" stroke="#E5E059" stroke-width="29" stroke-linecap="round" transform="translate(136.250000, 890.750000) rotate(-285.000000) translate(-136.250000, -890.750000) "></path>
            <path d="M0.5,259.5 C0.5,393.531149 109.294806,502.184864 243.5,502.184864 C377.705194,502.184864 486.5,393.531149 486.5,259.5" id="Path" stroke="#7678ED" stroke-width="35" stroke-linecap="round" transform="translate(243.500000, 380.842432) rotate(-180.000000) translate(-243.500000, -380.842432) "></path>
            <path d="M596.5,1286.5 L596.5,887 C596.5,789.521742 517.478258,710.5 420,710.5 C322.521742,710.5 243.5,789.521742 243.5,887 C243.5,935.739129 263.255435,979.864129 295.195653,1011.80435 C311.45331,1028.062 330.867845,1041.16278 352.440885,1050.10831 C373.250804,1058.73739 396.069218,1063.5 420,1063.5 C443.930782,1063.5 466.749196,1058.73739 487.559115,1050.10831" id="Path" stroke="#20E3C3" stroke-width="20" stroke-linecap="round"></path>
            <path d="M75.1881716,922.5 C61.5861832,928.136912 49.3451504,936.392206 39.0945571,946.636769 C18.9559732,966.763504 6.5,994.568331 6.5,1025.28069 C6.5,1086.61052 56.1700605,1136.34611 117.5,1136.5 M464.811828,922.5 C478.413817,928.136912 490.65485,936.392206 500.905443,946.636769 C521.044027,966.763504 533.5,994.568331 533.5,1025.28069 C533.5,1086.61052 483.82994,1136.34611 422.5,1136.5 M117.5,1137.04387 C158.374107,1136.92689 260.040774,1136.92689 422.5,1137.04387" id="Shape" stroke="#D03A8A" stroke-width="20" stroke-linecap="round"></path>
            <path d="M241.5,153.5 C255.379173,153.5 270.879173,153.5 288,153.5 C313.681241,153.5 334.5,132.681241 334.5,107 C334.5,81.3187591 313.681241,60.5 288,60.5 C262.318759,60.5 241.5,81.3187591 241.5,107 C241.5,124.120827 241.5,139.620827 241.5,153.5 Z" id="Oval" stroke="#7678ED" stroke-width="11" stroke-linecap="round"></path>
            <path d="M0,214 C151.348668,214 246.707227,214 286.075676,214 C345.128349,214 393,166.094468 393,107 C393,47.9055318 345.128349,0 286.075676,0 C227.023002,0 179.151351,47.9055318 179.151351,107" id="Oval" stroke="#20E3C3" stroke-width="19" stroke-linecap="round"></path>
            <g id="Group-2" transform="translate(67.500000, 322.500000)">
                <circle id="Oval" stroke="#E5E059" stroke-width="20" cx="176.5" cy="176.5" r="176.5"></circle>
                <circle id="Oval" stroke="#D03A8A" stroke-width="50" cx="176.5" cy="176.5" r="98.5"></circle>
                <circle id="Oval" stroke="#20E3C3" stroke-width="15" cx="176.5" cy="176.5" r="26.5"></circle>
                <circle id="Oval" fill="#7678ED" cx="176.5" cy="176.5" r="13.5"></circle>
            </g>
        </g>
    </g>
</svg>