<?xml version="1.0" encoding="UTF-8"?>
<svg width="451px" height="175px" viewBox="0 0 451 175" version="1.1" xmlns="http://www.w3.org/2000/svg" xmlns:xlink="http://www.w3.org/1999/xlink">
    <title>Group 2</title>
    <defs>
        <rect id="path-1" x="0" y="0" width="451" height="175"></rect>
    </defs>
    <g id="Page-1" stroke="none" stroke-width="1" fill="none" fill-rule="evenodd">
        <g id="Artboard" transform="translate(-306.000000, -250.000000)">
            <g id="Group-2" transform="translate(306.000000, 250.000000)">
                <mask id="mask-2" fill="white">
                    <use xlink:href="#path-1"></use>
                </mask>
                <g id="Rectangle"></g>
                <g id="Group-3" mask="url(#mask-2)">
                    <g transform="translate(16.121094, -76.775980)">
                        <path d="M31.1826117,58.1230026 C76.0248942,111.743532 204.093565,159.793425 130.320391,172.978034 C122.122746,174.443102 111.432846,175.477669 97.8595623,176.041541 C-37.8639595,181.679872 221.815023,177.372395 286.527688,243.962011" id="Path-2" stroke="#20E3C3" stroke-width="19" fill="none" stroke-linecap="round" transform="translate(158.855150, 151.042507) rotate(-36.000000) translate(-158.855150, -151.042507) "></path>
                        <path d="M25.1323242,130.77598 L25.1323242,123.65098 L8.62792969,123.65098 L8.62792969,90.0855498 L0,90.0855498 L0,130.77598 L25.1323242,130.77598 Z M39.7295468,130.77598 L42.6797422,121.090433 L57.5142148,121.090433 L60.4644101,130.77598 L69.7603086,130.77598 L55.3433164,89.9185576 L44.7949765,89.9185576 L30.4336484,130.77598 L39.7295468,130.77598 Z M55.4546445,113.854105 L44.8506406,113.854105 C47.7451718,104.483987 49.4985898,98.6114287 50.1108945,96.2364287 C50.259332,96.9043975 50.5051816,97.8135772 50.8484433,98.9639678 C51.191705,100.114358 52.7271054,105.077737 55.4546445,113.854105 L55.4546445,113.854105 Z M91.9835078,130.77598 L91.9835078,97.2662139 L103.032824,97.2662139 L103.032824,90.0855498 L72.3062617,90.0855498 L72.3062617,97.2662139 L83.3555781,97.2662139 L83.3555781,130.77598 L91.9835078,130.77598 Z M128.568035,131.33262 C132.687176,131.33262 136.416668,130.636819 139.756512,129.245218 L139.756512,129.245218 L139.756512,122.00889 C135.693035,123.437601 132.232586,124.151956 129.375164,124.151956 C122.565594,124.151956 119.160809,119.615335 119.160809,110.542093 C119.160809,106.181741 120.051434,102.781595 121.832684,100.341653 C123.613934,97.9017119 126.128094,96.6817412 129.375164,96.6817412 C130.859539,96.6817412 132.371746,96.9507842 133.911785,97.4888701 C135.451824,98.0269561 136.982586,98.6578155 138.50407,99.3814483 L138.50407,99.3814483 L141.287273,92.3677764 C137.298016,90.4566436 133.327312,89.5010772 129.375164,89.5010772 C125.497234,89.5010772 122.115642,90.3499541 119.230389,92.047708 C116.345135,93.7454619 114.132488,96.1854033 112.592449,99.3675322 C111.05241,102.549661 110.282391,106.25596 110.282391,110.486429 C110.282391,117.203226 111.850262,122.35679 114.986004,125.947122 C118.121746,129.537454 122.64909,131.33262 128.568035,131.33262 Z M160.393285,130.77598 L160.393285,113.213968 L176.508031,113.213968 L176.508031,130.77598 L185.108129,130.77598 L185.108129,90.0855498 L176.508031,90.0855498 L176.508031,106.033304 L160.393285,106.033304 L160.393285,90.0855498 L151.765355,90.0855498 L151.765355,130.77598 L160.393285,130.77598 Z M207.35916,130.77598 L207.35916,116.247659 L211.005156,113.631448 L221.664824,130.77598 L231.461699,130.77598 L217.156035,108.092874 L231.350371,90.0855498 L221.776152,90.0855498 L210.754668,103.918069 L207.35916,108.705179 L207.35916,90.0855498 L198.73123,90.0855498 L198.73123,130.77598 L207.35916,130.77598 Z M263.370445,130.77598 L263.370445,123.65098 L248.563805,123.65098 L248.563805,113.158304 L262.34066,113.158304 L262.34066,106.088968 L248.563805,106.088968 L248.563805,97.1548858 L263.370445,97.1548858 L263.370445,90.0855498 L239.935875,90.0855498 L239.935875,130.77598 L263.370445,130.77598 Z M292.162004,130.77598 L292.162004,114.939554 L305.660539,90.0855498 L296.36464,90.0855498 L287.875871,106.840433 L279.442765,90.0855498 L270.091203,90.0855498 L283.589738,115.217874 L283.589738,130.77598 L292.162004,130.77598 Z M340.922367,130.77598 L340.922367,116.247659 L344.568363,113.631448 L355.228031,130.77598 L365.024906,130.77598 L350.719242,108.092874 L364.913578,90.0855498 L355.339359,90.0855498 L344.317875,103.918069 L340.922367,108.705179 L340.922367,90.0855498 L332.294437,90.0855498 L332.294437,130.77598 L340.922367,130.77598 Z M388.723203,130.77598 L388.723203,125.877542 L383.769101,123.595315 L383.769101,97.2662139 L388.723203,94.9839873 L388.723203,90.0855498 L370.214902,90.0855498 L370.214902,94.9839873 L375.169004,97.2662139 L375.169004,123.595315 L370.214902,125.877542 L370.214902,130.77598 L388.723203,130.77598 Z M414.731558,130.77598 L414.731558,97.2662139 L425.780875,97.2662139 L425.780875,90.0855498 L395.054312,90.0855498 L395.054312,97.2662139 L406.103629,97.2662139 L406.103629,130.77598 L414.731558,130.77598 Z" id="LATCHKEYKIT" stroke="none" fill="#FFFFFF" fill-rule="nonzero"></path>
                    </g>
                </g>
            </g>
        </g>
    </g>
</svg>